# xmcd
#
# Track frame offsets:
#	150
#	34692
#	61825
#	80607
#	102792
#	122470
#	141527
#	174800
#	205790
#	226335
#	263790
#	283635
#
# Disc length: 4250 seconds
#
# Revision: 0
# Processed by: cddbd v1.4PL0 Copyright (c) Steve Scherf et al.
# Submitted via: dBpowerAMP V4.0
#
DISCID=9d10980c
DTITLE=Ryan Adams - Amsterdam Or Bust
DYEAR=2002
DGENRE=Country
TTITLE0=La Cienega Just Smiled
TTITLE1=Diamonds And Hearts
TTITLE2=Mixed Tapes P1
TTITLE3=Mixed Tapes P2-3
TTITLE4=Lovesick Blues
TTITLE5=Ooh Las Vegas
TTITLE6=Sin City
TTITLE7=Oh My Sweet Carolina
TTITLE8=Natalie
TTITLE9=New York, New  York
TTITLE10=Brown Sugar
TTITLE11=Tina Toledos Walking Street Blues
EXTD=
EXTT0=
EXTT1=
EXTT2=
EXTT3=
EXTT4=
EXTT5=
EXTT6=
EXTT7=
EXTT8=
EXTT9=
EXTT10=
EXTT11=
PLAYORDER=
